<svg width="120" height="119" viewBox="0 0 120 119" fill="none" xmlns="http://www.w3.org/2000/svg">
<path d="M0.90625 0.899994V80.7H10.1992C9.13934 83.6773 8.53125 86.8655 8.53125 90.2C8.53125 105.915 21.3584 118.7 37.125 118.7C52.8916 118.7 65.7188 105.915 65.7188 90.2C65.7188 86.8655 65.1107 83.6773 64.0508 80.7H74.2816L74.8878 85.5317C75.1738 87.8231 76.0621 90.0119 77.4536 91.8606L80.9688 96.5327V99.7H77.1562V118.7H119.094V99.7H115.281V96.3484L117.685 91.5566C118.608 89.7193 119.094 87.6635 119.094 85.6096V69.319V65.5V0.899994H0.90625ZM115.281 4.69999V16.1H4.71875V4.69999H115.281ZM37.125 114.9C23.461 114.9 12.3438 103.819 12.3438 90.2C12.3438 76.5808 23.461 65.5 37.125 65.5C50.789 65.5 61.9062 76.5808 61.9062 90.2C61.9062 103.819 50.789 114.9 37.125 114.9ZM62.3943 76.9C57.5905 67.8712 48.0726 61.7 37.125 61.7C26.1774 61.7 16.6576 67.8712 11.8558 76.9H4.71875V19.9H115.281V60.1496C114.683 59.9368 114.046 59.8 113.375 59.8C112.704 59.8 112.067 59.9368 111.469 60.1496V59.8C111.469 56.6574 108.903 54.1 105.75 54.1C104.28 54.1 102.952 54.6719 101.938 55.582C100.923 54.67 99.5947 54.1 98.125 54.1C97.454 54.1 96.8173 54.2368 96.2188 54.4496V46.5H105.75C108.903 46.5 111.469 43.9426 111.469 40.8V29.4C111.469 26.2574 108.903 23.7 105.75 23.7H75.25C72.0971 23.7 69.5312 26.2574 69.5312 29.4V40.8C69.5312 43.9426 72.0971 46.5 75.25 46.5H84.7812V66.2106C84.6669 66.089 84.5506 65.9674 84.4305 65.8496C81.7465 63.1725 78.1761 61.7 74.3788 61.7C71.7063 61.7 69.5312 63.8622 69.5312 66.5165C69.5312 67.4703 69.8115 68.3937 70.3433 69.1879L72.3048 72.1215C73.0311 73.2064 73.5001 74.4642 73.6621 75.7581L73.8051 76.9H62.3943ZM84.7812 37V42.7H75.25C74.1997 42.7 73.3438 41.8469 73.3438 40.8V29.4C73.3438 28.3531 74.1997 27.5 75.25 27.5H105.75C106.8 27.5 107.656 28.3531 107.656 29.4V40.8C107.656 41.8469 106.8 42.7 105.75 42.7H96.2188V37C96.2188 33.8574 93.6529 31.3 90.5 31.3C87.3471 31.3 84.7812 33.8574 84.7812 37ZM115.281 114.9H80.9688V103.5H85.6677L90.2045 110.281L97.0079 103.5H115.281V114.9ZM115.281 85.6096C115.281 87.0745 114.932 88.5451 114.275 89.8561L111.469 95.4516V99.7H95.4296L90.7955 104.319L87.7073 99.7H84.7812V95.2673L80.5036 89.5806C79.5105 88.262 78.8757 86.6964 78.6717 85.0605L77.446 75.2869C77.2096 73.4097 76.5291 71.5857 75.4768 70.0144L73.5153 67.0808C73.4028 66.9136 73.3438 66.7198 73.3438 66.5165C73.3438 65.9465 73.7993 65.5 74.3788 65.5C77.1582 65.5 79.7697 66.5773 81.7332 68.5381C83.6985 70.4951 84.7793 73.0981 84.7793 75.8683V82.6H88.5918V37C88.5918 35.9531 89.4478 35.1 90.4981 35.1C91.5484 35.1 92.4043 35.9531 92.4043 37V59.8V67.4H96.2168V59.8C96.2168 58.7531 97.0728 57.9 98.1231 57.9C99.1734 57.9 100.029 58.7531 100.029 59.8V67.4H103.842V59.8C103.842 58.7531 104.698 57.9 105.748 57.9C106.798 57.9 107.654 58.7531 107.654 59.8V65.5V67.4H111.467V65.5C111.467 64.4512 112.323 63.6 113.373 63.6C114.423 63.6 115.279 64.4512 115.279 65.5V69.319V85.6096H115.281Z" fill="#000634"/>
</svg>

