<svg width="33" height="54" viewBox="0 0 33 54" fill="none" xmlns="http://www.w3.org/2000/svg">
<path fill-rule="evenodd" clip-rule="evenodd" d="M1.347 36.763C2.18 37.242 3.207 37.242 4.039 36.763L27.616 23.21V32.895L1.346 47.997C1.04011 48.1722 0.77185 48.406 0.556644 48.6852C0.341439 48.9644 0.18353 49.2833 0.0919952 49.6237C0.000460535 49.9641 -0.0228951 50.3193 0.0232697 50.6687C0.0694344 51.0182 0.184211 51.3551 0.361 51.66C0.719086 52.2774 1.3075 52.7274 1.99708 52.9113C2.68665 53.0952 3.42103 52.998 4.039 52.641L31.654 36.764C32.0629 36.5297 32.4027 36.1916 32.639 35.7839C32.8754 35.3762 32.9999 34.9133 33 34.442V18.565C33 17.608 32.487 16.722 31.654 16.244C31.2445 16.0086 30.7804 15.8847 30.308 15.8847C29.8356 15.8847 29.3715 16.0086 28.962 16.244L5.385 29.797V20.106L30.468 5.68601C32.154 4.71801 33 4.23001 33 2.68001C33 1.20001 31.795 5.40321e-06 30.308 5.40321e-06C29.8116 -0.000989299 29.3247 0.135374 28.901 0.394004C27.968 0.936005 10.551 10.946 1.348 16.235C0.938739 16.4691 0.598551 16.8071 0.361847 17.2148C0.125143 17.6225 0.000318645 18.0855 0 18.557V34.442C0 35.4 0.513001 36.285 1.346 36.763" fill="#C21712"/>
</svg>
