<svg width="33" height="52" viewBox="0 0 33 52" fill="none" xmlns="http://www.w3.org/2000/svg">
<path fill-rule="evenodd" clip-rule="evenodd" d="M27.554 28.473L5.553 15.73V6.05501L27.554 18.81V28.472V28.473ZM31.552 14.951L6.702 0.544006V1.41401C6.702 2.79401 5.963 4.08001 4.774 4.77001L0.223001 7.40601V17.184C0.220001 17.288 0.215001 17.392 0.223001 17.494V33.098C0.221939 33.806 0.502087 34.4854 1.00184 34.9868C1.5016 35.4882 2.18005 35.7707 2.888 35.772C3.59596 35.7707 4.2744 35.4882 4.77416 34.9868C5.27392 34.4854 5.55406 33.806 5.553 33.098V21.906L27.554 34.65V48.943C27.5532 49.2937 27.6215 49.6412 27.755 49.9655C27.8886 50.2898 28.0847 50.5846 28.3321 50.8331C28.5796 51.0816 28.8736 51.2789 29.1974 51.4138C29.5211 51.5486 29.8683 51.6184 30.219 51.619C30.5697 51.6184 30.9169 51.5486 31.2406 51.4138C31.5644 51.2789 31.8584 51.0816 32.1059 50.8331C32.3533 50.5846 32.5494 50.2898 32.683 49.9655C32.8165 49.6412 32.8848 49.2937 32.884 48.943V17.267C32.884 16.312 32.377 15.428 31.552 14.951Z" fill="#C21712"/>
</svg>
