<svg width="61" height="101" viewBox="0 0 61 101" fill="none" xmlns="http://www.w3.org/2000/svg">
<path fill-rule="evenodd" clip-rule="evenodd" d="M56.936 84.71C57.362 84.955 57.829 85.07 58.287 85.07C59.224 85.07 60.135 84.587 60.637 83.725C60.8147 83.4187 60.93 83.0803 60.9763 82.7293C61.0226 82.3782 60.9988 82.0215 60.9065 81.6796C60.8142 81.3378 60.6551 81.0176 60.4384 80.7376C60.2217 80.4575 59.9517 80.2232 59.644 80.048L33.212 64.896V55.16L54.497 67.368C54.3314 66.7318 54.3324 66.0637 54.5 65.428C54.6326 64.9319 54.8625 64.4671 55.1763 64.0605C55.4902 63.654 55.8816 63.3139 56.328 63.06L57.075 62.63L33.205 48.941V18.636C33.205 17.676 32.689 16.786 31.851 16.306L4.065 0.360004C3.6526 0.123417 3.18544 -0.00106812 2.71 -0.00106812C2.23456 -0.00106812 1.7674 0.123417 1.355 0.360004C0.943797 0.594714 0.601914 0.93391 0.363967 1.34325C0.126021 1.75259 0.000460386 2.21753 0 2.691L0 34.573C0.00117975 34.9277 0.0722194 35.2786 0.209061 35.6058C0.345902 35.933 0.545864 36.23 0.797525 36.4799C1.04919 36.7298 1.34761 36.9277 1.67576 37.0622C2.00391 37.1968 2.35535 37.2653 2.71 37.264C3.06457 37.2652 3.4159 37.1965 3.74393 37.0619C4.07197 36.9273 4.37027 36.7294 4.62183 36.4796C4.87338 36.2297 5.07326 35.9327 5.21003 35.6056C5.34681 35.2784 5.41782 34.9276 5.419 34.573V7.354L13.906 12.224L13.893 42.534C13.8943 42.8886 13.9654 43.2394 14.1023 43.5665C14.2392 43.8936 14.4392 44.1905 14.6909 44.4403C14.9425 44.6901 15.2409 44.8878 15.569 45.0223C15.8971 45.1568 16.2484 45.2253 16.603 45.224C17.3189 45.2264 18.0065 44.9444 18.5145 44.4399C19.0225 43.9355 19.3094 43.2499 19.312 42.534L19.323 15.334L27.787 20.19V50.51C27.787 50.532 27.793 50.555 27.794 50.578V66.348C27.791 66.458 27.784 66.565 27.794 66.674V82.38C27.794 83.343 28.311 84.232 29.149 84.712L56.936 100.64C57.347 100.876 57.8128 101.001 58.287 101.001C59.224 101.001 60.135 100.518 60.637 99.655C60.8147 99.3487 60.93 99.0103 60.9763 98.6593C61.0226 98.3082 60.9988 97.9515 60.9065 97.6096C60.8142 97.2678 60.6551 96.9476 60.4384 96.6676C60.2217 96.3875 59.9517 96.1532 59.644 95.978L33.212 80.826V71.11L56.936 84.71Z" fill="#C21712"/>
</svg>
