<?xml version="1.0" encoding="UTF-8"?>
<!DOCTYPE svg PUBLIC "-//W3C//DTD SVG 1.1//EN" "http://www.w3.org/Graphics/SVG/1.1/DTD/svg11.dtd">
<!-- Creator: CorelDRAW 2020 (64 Bit Versão de avaliação) -->
<svg xmlns="http://www.w3.org/2000/svg" xml:space="preserve" width="29.8269mm" height="26.7234mm" version="1.1" style="shape-rendering:geometricPrecision; text-rendering:geometricPrecision; image-rendering:optimizeQuality; fill-rule:evenodd; clip-rule:evenodd"
viewBox="0 0 1788.62 1602.51"
 xmlns:xlink="http://www.w3.org/1999/xlink"
 xmlns:xodm="http://www.corel.com/coreldraw/odm/2003">
 <defs>
  <style type="text/css">
   <![CDATA[
    .fil0 {fill:#C21712}
   ]]>
  </style>
 </defs>
 <g id="Camada_x0020_1">
  <metadata id="CorelCorpID_0Corel-Layer"/>
  <path class="fil0" d="M1704.05 1197.93l-349.07 -202.18 0 -153.5 349.07 202.37 0 153.3 0 0.01zm63.43 -214.54l-394.27 -228.58 0 13.8c0,21.89 -11.72,42.29 -30.59,53.24l-72.21 41.82 0 155.14c-0.05,1.65 -0.13,3.3 0,4.92l0 247.57c-0.02,11.23 4.43,22.01 12.35,29.97 7.93,7.95 18.7,12.44 29.93,12.46 11.23,-0.02 22,-4.5 29.92,-12.46 7.93,-7.96 12.38,-18.74 12.36,-29.97l0 -177.57 349.07 202.2 0 226.78c-0.01,5.56 1.07,11.08 3.19,16.23 2.12,5.15 5.23,9.82 9.16,13.76 3.93,3.95 8.59,7.08 13.73,9.22 5.14,2.13 10.64,3.24 16.21,3.26 5.56,-0.01 11.08,-1.12 16.21,-3.26 5.14,-2.14 9.8,-5.27 13.73,-9.22 3.92,-3.94 7.03,-8.62 9.16,-13.76 2.12,-5.15 3.2,-10.66 3.18,-16.23l0 -502.57c0,-15.15 -8.04,-29.18 -21.13,-36.75z"/>
  <path id="logo_me.svg" class="fil0" d="M903.35 1344.04c6.76,3.89 14.17,5.71 21.44,5.71 14.87,0 29.32,-7.66 37.28,-21.34 2.82,-4.86 4.65,-10.23 5.38,-15.8 0.74,-5.57 0.36,-11.23 -1.1,-16.65 -1.47,-5.42 -3.99,-10.51 -7.43,-14.94 -3.44,-4.44 -7.72,-8.16 -12.6,-10.94l-419.37 -240.41 0 -154.47 337.71 193.69c-2.63,-10.09 -2.61,-20.69 0.05,-30.78 2.1,-7.87 5.75,-15.24 10.73,-21.7 4.98,-6.45 11.19,-11.85 18.28,-15.87l11.85 -6.82 -378.72 -217.19 0 -480.82c0,-15.23 -8.19,-29.35 -21.48,-36.97l-440.86 -253c-6.54,-3.75 -13.95,-5.73 -21.5,-5.73 -7.54,0 -14.96,1.97 -21.5,5.73 -6.52,3.72 -11.95,9.1 -15.72,15.6 -3.77,6.49 -5.77,13.88 -5.77,21.38l0 505.85c0.02,5.62 1.15,11.2 3.32,16.38 2.17,5.19 5.34,9.91 9.34,13.87 3.99,3.96 8.73,7.11 13.94,9.24 5.21,2.13 10.78,3.22 16.41,3.2 5.62,0.02 11.2,-1.07 16.41,-3.21 5.21,-2.13 9.94,-5.28 13.93,-9.24 3.99,-3.96 7.16,-8.68 9.33,-13.86 2.17,-5.19 3.3,-10.76 3.32,-16.38l0 -431.86 134.65 77.27 -0.2 480.9c0.02,5.63 1.15,11.2 3.32,16.38 2.18,5.19 5.35,9.9 9.34,13.86 3.99,3.96 8.73,7.1 13.93,9.23 5.21,2.13 10.78,3.22 16.41,3.2 11.36,0.04 22.27,-4.44 30.33,-12.44 8.06,-8.01 12.62,-18.88 12.65,-30.24l0.18 -431.56 134.29 77.05 0 481.06c0,0.35 0.1,0.72 0.11,1.08l0 250.21c-0.05,1.75 -0.16,3.44 0,5.18l0 249.19c0,15.28 8.2,29.38 21.5,37l440.87 252.72c6.52,3.75 13.91,5.73 21.44,5.73 14.87,0 29.32,-7.66 37.28,-21.35 2.82,-4.86 4.65,-10.23 5.38,-15.8 0.74,-5.56 0.36,-11.23 -1.1,-16.65 -1.47,-5.42 -3.99,-10.5 -7.43,-14.94 -3.44,-4.44 -7.72,-8.16 -12.6,-10.94l-419.37 -240.4 0 -154.16 376.4 215.78z"/>
  <g>
   <path id="logo_s.svg" class="fil0" d="M873.04 822.39c13.22,7.6 29.51,7.6 42.71,0l374.08 -215.03 0 153.66 -416.8 239.61c-4.85,2.78 -9.11,6.49 -12.52,10.91 -3.42,4.43 -5.92,9.49 -7.38,14.9 -1.45,5.4 -1.82,11.03 -1.09,16.57 0.73,5.55 2.55,10.9 5.36,15.73 5.68,9.8 15.02,16.93 25.96,19.85 10.94,2.92 22.59,1.37 32.39,-4.29l438.15 -251.91c6.49,-3.72 11.88,-9.08 15.63,-15.55 3.75,-6.47 5.73,-13.82 5.73,-21.29l0 -251.91c0,-15.18 -8.14,-29.24 -21.35,-36.83 -6.5,-3.73 -13.86,-5.7 -21.35,-5.7 -7.5,0 -14.86,1.97 -21.36,5.7l-374.07 215.03 0 -153.75 397.97 -228.79c26.75,-15.36 40.17,-23.11 40.17,-47.7 0,-23.48 -19.12,-42.52 -42.71,-42.52 -7.88,-0.02 -15.6,2.15 -22.33,6.25 -14.81,8.6 -291.14,167.42 -437.16,251.34 -6.49,3.71 -11.89,9.07 -15.65,15.54 -3.75,6.47 -5.73,13.82 -5.74,21.29l0 252.03c0,15.2 8.14,29.25 21.35,36.83l0.02 0zm0 0l0 0 0 0z"/>
  </g>
 </g>
</svg>
